{"title":"Scary Movie 5 2013 CAM XViD-OPTiMUM","uid":8392837,"size":732035117,"categoryP":"video","categoryS":"movies","magnet":"?xt=urn:btih:d3642f6448ffe46404cd851e1b8bb7986bae9b35&amp;dn=Scary+Movie+5+2013+CAM+XViD-OPTiMUM&amp;tr=udp%3A%2F%2Ftracker.openbittorrent.com%3A80&amp;tr=udp%3A%2F%2Fopen.demonii.com%3A1337&amp;tr=udp%3A%2F%2Ftracker.coppersurfer.tk%3A6969&amp;tr=udp%3A%2F%2Fexodus.desync.com%3A6969","seeders":1,"leechers":0,"uploader":"HeroMaster","files":-1,"time":1366484225,"description":"Scary Movie 5 2013 CAM XViD-OPTiMUM\n\n\nIMDB: http://www.imdb.com/title/tt0795461/\n\n\nFormat                                   : AVI\nFormat/Info                              : Audio Video Interleave\nFile size                                : 680 MiB\nDuration                                 : 1h 10mn\nOverall bit rate                         : 1 340 Kbps\nWriting application                      : VirtualDubMod 1.5.10.2 \nWriting library                          : VirtualDubMod build 2540/release\n\nVideo\nID                                       : 0\nFormat                                   : MPEG-4 Visual\nFormat profile                           : Advanced Simple@L5\nFormat settings, BVOP                    : 2\nFormat settings, QPel                    : No\nFormat settings, GMC                     : No warppoints\nFormat settings, Matrix                  : Default (H.263)\nMuxing mode                              : Packed bitstream\nCodec ID                                 : XVID\nCodec ID/Hint                            : XviD\nDuration                                 : 1h 10mn\nBit rate                                 : 1 200 Kbps\nWidth                                    : 678 pixels\nHeight                                   : 342 pixels\nDisplay aspect ratio                     : 1.982\nFrame rate                               : 29.970 fps\nColor space                              : YUV\nChroma subsampling                       : 4:2:0\nBit depth                                : 8 bits\nScan type                                : Progressive\nCompression mode                         : Lossy\nBits/(Pixel*Frame)                       : 0.173\nStream size                              : 609 MiB (90%)\nWriting library                          : XviD 64\n\nAudio\nID                                       : 1\nFormat                                   : MPEG Audio\nFormat version                           : Version 1\nFormat profile                           : Layer 3\nCodec ID                                 : 55\nCodec ID/Hint                            : MP3\nDuration                                 : 1h 10mn\nBit rate mode                            : Constant\nBit rate                                 : 128 Kbps\nChannel(s)                               : 2 channels\nSampling rate                            : 48.0 KHz\nCompression mode                         : Lossy\nStream size                              : 64.9 MiB (10%)\nAlignment                                : Split accross interleaves\nInterleave, duration                     : 33 ms (1.00 video frame)\nInterleave, preload duration             : 500 ms\n\n\nSource Used \n\nScary Movie 5 2013 CAMRip x264-HustleHard /Thanks\n\n\nPoster:\n\n &lt;a href=&quot;\nhttp://i.imgur.com/IaM3mzr.jpg&quot; rel=&quot;nofollow&quot; target=&quot;_NEW&quot;&gt;\nhttp://i.imgur.com/IaM3mzr.jpg&lt;/a&gt;\n\n\nScreenshots:\n\n &lt;a href=&quot;\nhttp://i.imgur.com/5XzmhLJ.png&quot; rel=&quot;nofollow&quot; target=&quot;_NEW&quot;&gt;\nhttp://i.imgur.com/5XzmhLJ.png&lt;/a&gt;\n\n &lt;a href=&quot;\nhttp://i.imgur.com/QLKe1hi.png&quot; rel=&quot;nofollow&quot; target=&quot;_NEW&quot;&gt;\nhttp://i.imgur.com/QLKe1hi.png&lt;/a&gt;\n\n &lt;a href=&quot;\nhttp://i.imgur.com/C0yQmLC.png&quot; rel=&quot;nofollow&quot; target=&quot;_NEW&quot;&gt;\nhttp://i.imgur.com/C0yQmLC.png&lt;/a&gt;\n\n\nSEED AND ENJOY!","torrent":{"xt":"urn:btih:d3642f6448ffe46404cd851e1b8bb7986bae9b35","amp;dn":"Scary+Movie+5+2013+CAM+XViD-OPTiMUM","amp;tr":["udp%3A%2F%2Ftracker.openbittorrent.com%3A80","udp%3A%2F%2Fopen.demonii.com%3A1337","udp%3A%2F%2Ftracker.coppersurfer.tk%3A6969","udp%3A%2F%2Fexodus.desync.com%3A6969"],"infoHash":"d3642f6448ffe46404cd851e1b8bb7986bae9b35","infoHashBuffer":{"type":"Buffer","data":[211,100,47,100,72,255,228,100,4,205,133,30,27,139,183,152,107,174,155,53]},"announce":[],"urlList":[]}}